# xmcd
#
# Track frame offsets:
#  150
#  23937
#  48900
#  75350
#  100412
#  123952
#  135787
#  148737
#  175600
#  208765
#
# Disc length: 3223 seconds
#
# Revision: 0
# Processed by: cddbd v1.4PL0 Copyright (c) Steve Scherf et al.
# Submitted via: AltoMP3_Maker 3.0
#
DISCID=7b0c950a
DTITLE=Anh Tuyet - Tinh Khuc Van Cao
DYEAR=1900
DGENRE=
TTITLE0=Cung Dan Xua
TTITLE1=Thu Co Lieu
TTITLE2=Thien Thai
TTITLE3=Suoi Mo
TTITLE4=Dan Chim Viet
TTITLE5=Lang Toi
TTITLE6=Ngay Xua
TTITLE7=Truong Chi
TTITLE8=Buon Tan Thu
TTITLE9=Nhac Em Diu
EXTD=
EXTT0=
EXTT1=
EXTT2=
EXTT3=
EXTT4=
EXTT5=
EXTT6=
EXTT7=
EXTT8=
EXTT9=
PLAYORDER=
